<?xml version="1.0" encoding="UTF-8" standalone="no"?><svg width="439" height="195" viewBox="0 0 439 195" fill="none" xmlns="http://www.w3.org/2000/svg">
<path d="M37.8061 187.72V193H37.0141V189.944L37.0781 188.488H37.0701L35.4621 193H34.7501L33.1421 188.488H33.1341L33.1981 189.944V193H32.4061V187.72H33.6781L34.7421 190.776L35.1101 192.032H35.1261L35.5021 190.776L36.5581 187.72H37.8061ZM40.9361 188.92C41.3255 188.92 41.6695 189.003 41.9681 189.168C42.2668 189.333 42.4988 189.573 42.6641 189.888C42.8348 190.197 42.9201 190.568 42.9201 191C42.9201 191.432 42.8348 191.805 42.6641 192.12C42.4988 192.429 42.2668 192.667 41.9681 192.832C41.6695 192.997 41.3255 193.08 40.9361 193.08C40.5468 193.08 40.2028 192.997 39.9041 192.832C39.6055 192.667 39.3708 192.429 39.2001 192.12C39.0295 191.805 38.9441 191.432 38.9441 191C38.9441 190.568 39.0295 190.197 39.2001 189.888C39.3708 189.573 39.6055 189.333 39.9041 189.168C40.2028 189.003 40.5468 188.92 40.9361 188.92ZM40.9361 189.592C40.6961 189.592 40.4908 189.648 40.3201 189.76C40.1548 189.867 40.0268 190.024 39.9361 190.232C39.8455 190.44 39.8001 190.696 39.8001 191C39.8001 191.299 39.8455 191.555 39.9361 191.768C40.0268 191.976 40.1548 192.136 40.3201 192.248C40.4908 192.355 40.6961 192.408 40.9361 192.408C41.1761 192.408 41.3788 192.355 41.5441 192.248C41.7095 192.136 41.8375 191.976 41.9281 191.768C42.0188 191.555 42.0641 191.299 42.0641 191C42.0641 190.696 42.0188 190.44 41.9281 190.232C41.8375 190.024 41.7095 189.867 41.5441 189.76C41.3788 189.648 41.1761 189.592 40.9361 189.592ZM43.997 193V189H44.757L44.813 190.04L44.701 189.928C44.7757 189.699 44.8823 189.509 45.021 189.36C45.165 189.205 45.333 189.093 45.525 189.024C45.7223 188.955 45.9303 188.92 46.149 188.92C46.4317 188.92 46.685 188.976 46.909 189.088C47.1383 189.195 47.3197 189.357 47.453 189.576C47.5863 189.795 47.653 190.072 47.653 190.408V193H46.797V190.672C46.797 190.277 46.7143 190.005 46.549 189.856C46.389 189.701 46.1863 189.624 45.941 189.624C45.765 189.624 45.5943 189.667 45.429 189.752C45.2637 189.832 45.125 189.963 45.013 190.144C44.9063 190.325 44.853 190.568 44.853 190.872V193H43.997Z" fill="#737373"/>
<path d="M7.30971 168V164.376C7.30971 164.269 7.30971 164.16 7.30971 164.048C7.31504 163.931 7.32037 163.808 7.32571 163.68C7.14437 163.856 6.93637 164.008 6.70171 164.136C6.47237 164.259 6.23504 164.347 5.98971 164.4L5.82971 163.656C5.94171 163.64 6.07237 163.603 6.22171 163.544C6.37104 163.485 6.52571 163.411 6.68571 163.32C6.84571 163.229 6.99237 163.133 7.12571 163.032C7.25904 162.925 7.36304 162.821 7.43771 162.72H8.15771V168H7.30971ZM11.4165 168.08C10.7818 168.08 10.2831 167.851 9.92046 167.392C9.56312 166.928 9.38446 166.251 9.38446 165.36C9.38446 164.469 9.56312 163.795 9.92046 163.336C10.2831 162.872 10.7818 162.64 11.4165 162.64C12.0565 162.64 12.5551 162.872 12.9125 163.336C13.2751 163.795 13.4565 164.469 13.4565 165.36C13.4565 166.251 13.2751 166.928 12.9125 167.392C12.5551 167.851 12.0565 168.08 11.4165 168.08ZM11.4165 167.352C11.6725 167.352 11.8858 167.28 12.0565 167.136C12.2325 166.987 12.3631 166.765 12.4485 166.472C12.5391 166.173 12.5845 165.803 12.5845 165.36C12.5845 164.917 12.5391 164.549 12.4485 164.256C12.3631 163.957 12.2325 163.736 12.0565 163.592C11.8858 163.443 11.6725 163.368 11.4165 163.368C11.1605 163.368 10.9445 163.443 10.7685 163.592C10.5978 163.736 10.4698 163.957 10.3845 164.256C10.2991 164.549 10.2565 164.917 10.2565 165.36C10.2565 165.803 10.2991 166.173 10.3845 166.472C10.4698 166.765 10.5978 166.987 10.7685 167.136C10.9445 167.28 11.1605 167.352 11.4165 167.352ZM16.4399 168.08C15.8052 168.08 15.3066 167.851 14.9439 167.392C14.5866 166.928 14.4079 166.251 14.4079 165.36C14.4079 164.469 14.5866 163.795 14.9439 163.336C15.3066 162.872 15.8052 162.64 16.4399 162.64C17.0799 162.64 17.5786 162.872 17.9359 163.336C18.2986 163.795 18.4799 164.469 18.4799 165.36C18.4799 166.251 18.2986 166.928 17.9359 167.392C17.5786 167.851 17.0799 168.08 16.4399 168.08ZM16.4399 167.352C16.6959 167.352 16.9092 167.28 17.0799 167.136C17.2559 166.987 17.3866 166.765 17.4719 166.472C17.5626 166.173 17.6079 165.803 17.6079 165.36C17.6079 164.917 17.5626 164.549 17.4719 164.256C17.3866 163.957 17.2559 163.736 17.0799 163.592C16.9092 163.443 16.6959 163.368 16.4399 163.368C16.1839 163.368 15.9679 163.443 15.7919 163.592C15.6212 163.736 15.4932 163.957 15.4079 164.256C15.3226 164.549 15.2799 164.917 15.2799 165.36C15.2799 165.803 15.3226 166.173 15.4079 166.472C15.4932 166.765 15.6212 166.987 15.7919 167.136C15.9679 167.28 16.1839 167.352 16.4399 167.352ZM23.3913 164L21.6073 165.824L21.4233 165.952L20.1673 167.256L20.1593 166.28L22.3753 164H23.3913ZM20.4713 162.2V168H19.6153V162.2H20.4713ZM21.7113 165.344L23.4873 168H22.4953L21.0713 165.832L21.7113 165.344Z" fill="#737373"/>
<path d="M4.76914 131V130.376C5.27581 130.013 5.69981 129.693 6.04114 129.416C6.38781 129.139 6.66514 128.883 6.87314 128.648C7.08114 128.413 7.23047 128.192 7.32114 127.984C7.41714 127.771 7.46514 127.555 7.46514 127.336C7.46514 127.053 7.37714 126.824 7.20114 126.648C7.02514 126.472 6.77981 126.384 6.46514 126.384C6.13447 126.384 5.87047 126.496 5.67314 126.72C5.48114 126.939 5.37181 127.24 5.34514 127.624L4.60114 127.28C4.63847 126.944 4.73714 126.653 4.89714 126.408C5.05714 126.163 5.27314 125.973 5.54514 125.84C5.82247 125.707 6.14247 125.64 6.50514 125.64C6.80381 125.64 7.06514 125.683 7.28914 125.768C7.51847 125.853 7.71047 125.973 7.86514 126.128C8.01981 126.277 8.13714 126.453 8.21714 126.656C8.30247 126.859 8.34514 127.075 8.34514 127.304C8.34514 127.64 8.26247 127.965 8.09714 128.28C7.93181 128.589 7.67047 128.907 7.31314 129.232C6.95581 129.557 6.48647 129.907 5.90514 130.28V130.296C5.96914 130.285 6.05714 130.28 6.16914 130.28C6.28114 130.275 6.39314 130.272 6.50514 130.272C6.61714 130.267 6.70781 130.264 6.77714 130.264H8.44114V131H4.76914ZM11.4165 131.08C10.7818 131.08 10.2831 130.851 9.92045 130.392C9.56312 129.928 9.38445 129.251 9.38445 128.36C9.38445 127.469 9.56312 126.795 9.92045 126.336C10.2831 125.872 10.7818 125.64 11.4165 125.64C12.0565 125.64 12.5551 125.872 12.9125 126.336C13.2751 126.795 13.4565 127.469 13.4565 128.36C13.4565 129.251 13.2751 129.928 12.9125 130.392C12.5551 130.851 12.0565 131.08 11.4165 131.08ZM11.4165 130.352C11.6725 130.352 11.8858 130.28 12.0565 130.136C12.2325 129.987 12.3631 129.765 12.4485 129.472C12.5391 129.173 12.5845 128.803 12.5845 128.36C12.5845 127.917 12.5391 127.549 12.4485 127.256C12.3631 126.957 12.2325 126.736 12.0565 126.592C11.8858 126.443 11.6725 126.368 11.4165 126.368C11.1605 126.368 10.9445 126.443 10.7685 126.592C10.5978 126.736 10.4698 126.957 10.3845 127.256C10.2991 127.549 10.2565 127.917 10.2565 128.36C10.2565 128.803 10.2991 129.173 10.3845 129.472C10.4698 129.765 10.5978 129.987 10.7685 130.136C10.9445 130.28 11.1605 130.352 11.4165 130.352ZM16.4399 131.08C15.8052 131.08 15.3066 130.851 14.9439 130.392C14.5866 129.928 14.4079 129.251 14.4079 128.36C14.4079 127.469 14.5866 126.795 14.9439 126.336C15.3066 125.872 15.8052 125.64 16.4399 125.64C17.0799 125.64 17.5786 125.872 17.9359 126.336C18.2986 126.795 18.4799 127.469 18.4799 128.36C18.4799 129.251 18.2986 129.928 17.9359 130.392C17.5786 130.851 17.0799 131.08 16.4399 131.08ZM16.4399 130.352C16.6959 130.352 16.9092 130.28 17.0799 130.136C17.2559 129.987 17.3866 129.765 17.4719 129.472C17.5626 129.173 17.6079 128.803 17.6079 128.36C17.6079 127.917 17.5626 127.549 17.4719 127.256C17.3866 126.957 17.2559 126.736 17.0799 126.592C16.9092 126.443 16.6959 126.368 16.4399 126.368C16.1839 126.368 15.9679 126.443 15.7919 126.592C15.6212 126.736 15.4932 126.957 15.4079 127.256C15.3226 127.549 15.2799 127.917 15.2799 128.36C15.2799 128.803 15.3226 129.173 15.4079 129.472C15.4932 129.765 15.6212 129.987 15.7919 130.136C15.9679 130.28 16.1839 130.352 16.4399 130.352ZM23.3913 127L21.6073 128.824L21.4233 128.952L20.1673 130.256L20.1593 129.28L22.3753 127H23.3913ZM20.4713 125.2V131H19.6153V125.2H20.4713ZM21.7113 128.344L23.4873 131H22.4953L21.0713 128.832L21.7113 128.344Z" fill="#737373"/>
<path d="M6.56095 94.08C6.06495 94.08 5.63295 93.9707 5.26495 93.752C4.90228 93.528 4.65428 93.216 4.52095 92.816L5.35295 92.424C5.40095 92.616 5.47562 92.7813 5.57695 92.92C5.67828 93.0587 5.81162 93.1653 5.97695 93.24C6.14228 93.3093 6.34762 93.344 6.59295 93.344C6.80095 93.344 6.97695 93.3067 7.12095 93.232C7.26495 93.1573 7.37428 93.0533 7.44895 92.92C7.52895 92.7867 7.56895 92.6347 7.56895 92.464C7.56895 92.288 7.53428 92.1413 7.46495 92.024C7.40095 91.9067 7.29695 91.8213 7.15295 91.768C7.01428 91.7147 6.83562 91.688 6.61695 91.688C6.55295 91.688 6.48628 91.6907 6.41695 91.696C6.35295 91.696 6.28362 91.7013 6.20895 91.712V90.992C6.25695 90.9973 6.30228 91.0027 6.34495 91.008C6.39295 91.008 6.43828 91.008 6.48095 91.008C6.82762 91.008 7.07562 90.9387 7.22495 90.8C7.37428 90.6613 7.44895 90.4453 7.44895 90.152C7.44895 89.9013 7.37162 89.7093 7.21695 89.576C7.06762 89.4427 6.85162 89.376 6.56895 89.376C6.27562 89.376 6.04628 89.4453 5.88095 89.584C5.72095 89.7173 5.59828 89.912 5.51295 90.168L4.72895 89.84C4.80362 89.5947 4.92895 89.3813 5.10495 89.2C5.28095 89.0187 5.49695 88.88 5.75295 88.784C6.01428 88.6827 6.29962 88.632 6.60895 88.632C6.98762 88.632 7.30228 88.6933 7.55295 88.816C7.80895 88.9387 7.99828 89.1067 8.12095 89.32C8.24895 89.5333 8.31295 89.7707 8.31295 90.032C8.31295 90.2347 8.28362 90.4133 8.22495 90.568C8.16628 90.7173 8.08628 90.848 7.98495 90.96C7.88895 91.0667 7.78228 91.1493 7.66495 91.208C7.55295 91.2667 7.43828 91.3067 7.32095 91.328V91.344C7.47562 91.3493 7.61695 91.3813 7.74495 91.44C7.87828 91.4933 7.99562 91.5707 8.09695 91.672C8.20362 91.768 8.28628 91.8853 8.34495 92.024C8.40362 92.1627 8.43295 92.3147 8.43295 92.48C8.43295 92.8 8.35295 93.08 8.19295 93.32C8.03295 93.56 7.81162 93.7467 7.52895 93.88C7.25162 94.0133 6.92895 94.08 6.56095 94.08ZM11.4165 94.08C10.7818 94.08 10.2831 93.8507 9.92045 93.392C9.56312 92.928 9.38445 92.2507 9.38445 91.36C9.38445 90.4693 9.56312 89.7947 9.92045 89.336C10.2831 88.872 10.7818 88.64 11.4165 88.64C12.0565 88.64 12.5551 88.872 12.9125 89.336C13.2751 89.7947 13.4565 90.4693 13.4565 91.36C13.4565 92.2507 13.2751 92.928 12.9125 93.392C12.5551 93.8507 12.0565 94.08 11.4165 94.08ZM11.4165 93.352C11.6725 93.352 11.8858 93.28 12.0565 93.136C12.2325 92.9867 12.3631 92.7653 12.4485 92.472C12.5391 92.1733 12.5845 91.8027 12.5845 91.36C12.5845 90.9173 12.5391 90.5493 12.4485 90.256C12.3631 89.9573 12.2325 89.736 12.0565 89.592C11.8858 89.4427 11.6725 89.368 11.4165 89.368C11.1605 89.368 10.9445 89.4427 10.7685 89.592C10.5978 89.736 10.4698 89.9573 10.3845 90.256C10.2991 90.5493 10.2565 90.9173 10.2565 91.36C10.2565 91.8027 10.2991 92.1733 10.3845 92.472C10.4698 92.7653 10.5978 92.9867 10.7685 93.136C10.9445 93.28 11.1605 93.352 11.4165 93.352ZM16.4399 94.08C15.8052 94.08 15.3066 93.8507 14.9439 93.392C14.5866 92.928 14.4079 92.2507 14.4079 91.36C14.4079 90.4693 14.5866 89.7947 14.9439 89.336C15.3066 88.872 15.8052 88.64 16.4399 88.64C17.0799 88.64 17.5786 88.872 17.9359 89.336C18.2986 89.7947 18.4799 90.4693 18.4799 91.36C18.4799 92.2507 18.2986 92.928 17.9359 93.392C17.5786 93.8507 17.0799 94.08 16.4399 94.08ZM16.4399 93.352C16.6959 93.352 16.9092 93.28 17.0799 93.136C17.2559 92.9867 17.3866 92.7653 17.4719 92.472C17.5626 92.1733 17.6079 91.8027 17.6079 91.36C17.6079 90.9173 17.5626 90.5493 17.4719 90.256C17.3866 89.9573 17.2559 89.736 17.0799 89.592C16.9092 89.4427 16.6959 89.368 16.4399 89.368C16.1839 89.368 15.9679 89.4427 15.7919 89.592C15.6212 89.736 15.4932 89.9573 15.4079 90.256C15.3226 90.5493 15.2799 90.9173 15.2799 91.36C15.2799 91.8027 15.3226 92.1733 15.4079 92.472C15.4932 92.7653 15.6212 92.9867 15.7919 93.136C15.9679 93.28 16.1839 93.352 16.4399 93.352ZM23.3913 90L21.6073 91.824L21.4233 91.952L20.1673 93.256L20.1593 92.28L22.3753 90H23.3913ZM20.4713 88.2V94H19.6153V88.2H20.4713ZM21.7113 91.344L23.4873 94H22.4953L21.0713 91.832L21.7113 91.344Z" fill="#737373"/>
<path d="M6.85589 57V55.68H4.27989V55.096C4.29056 55.0693 4.30656 55.0373 4.32789 55C4.35456 54.9627 4.38389 54.92 4.41589 54.872L6.61589 51.72H7.66389V55.016H8.55989V55.68H7.66389V57H6.85589ZM5.07989 55.016H6.85589V53.152C6.85589 53.024 6.85856 52.8933 6.86389 52.76C6.87456 52.6213 6.88256 52.4853 6.88789 52.352H6.87189C6.81322 52.48 6.73589 52.6213 6.63989 52.776C6.54922 52.9253 6.46389 53.056 6.38389 53.168L5.13589 54.944C5.12522 54.9547 5.11456 54.9653 5.10389 54.976C5.09856 54.9867 5.09056 55 5.07989 55.016ZM11.4165 57.08C10.7818 57.08 10.2831 56.8507 9.92045 56.392C9.56312 55.928 9.38445 55.2507 9.38445 54.36C9.38445 53.4693 9.56312 52.7947 9.92045 52.336C10.2831 51.872 10.7818 51.64 11.4165 51.64C12.0565 51.64 12.5551 51.872 12.9125 52.336C13.2751 52.7947 13.4565 53.4693 13.4565 54.36C13.4565 55.2507 13.2751 55.928 12.9125 56.392C12.5551 56.8507 12.0565 57.08 11.4165 57.08ZM11.4165 56.352C11.6725 56.352 11.8858 56.28 12.0565 56.136C12.2325 55.9867 12.3631 55.7653 12.4485 55.472C12.5391 55.1733 12.5845 54.8027 12.5845 54.36C12.5845 53.9173 12.5391 53.5493 12.4485 53.256C12.3631 52.9573 12.2325 52.736 12.0565 52.592C11.8858 52.4427 11.6725 52.368 11.4165 52.368C11.1605 52.368 10.9445 52.4427 10.7685 52.592C10.5978 52.736 10.4698 52.9573 10.3845 53.256C10.2991 53.5493 10.2565 53.9173 10.2565 54.36C10.2565 54.8027 10.2991 55.1733 10.3845 55.472C10.4698 55.7653 10.5978 55.9867 10.7685 56.136C10.9445 56.28 11.1605 56.352 11.4165 56.352ZM16.4399 57.08C15.8052 57.08 15.3066 56.8507 14.9439 56.392C14.5866 55.928 14.4079 55.2507 14.4079 54.36C14.4079 53.4693 14.5866 52.7947 14.9439 52.336C15.3066 51.872 15.8052 51.64 16.4399 51.64C17.0799 51.64 17.5786 51.872 17.9359 52.336C18.2986 52.7947 18.4799 53.4693 18.4799 54.36C18.4799 55.2507 18.2986 55.928 17.9359 56.392C17.5786 56.8507 17.0799 57.08 16.4399 57.08ZM16.4399 56.352C16.6959 56.352 16.9092 56.28 17.0799 56.136C17.2559 55.9867 17.3866 55.7653 17.4719 55.472C17.5626 55.1733 17.6079 54.8027 17.6079 54.36C17.6079 53.9173 17.5626 53.5493 17.4719 53.256C17.3866 52.9573 17.2559 52.736 17.0799 52.592C16.9092 52.4427 16.6959 52.368 16.4399 52.368C16.1839 52.368 15.9679 52.4427 15.7919 52.592C15.6212 52.736 15.4932 52.9573 15.4079 53.256C15.3226 53.5493 15.2799 53.9173 15.2799 54.36C15.2799 54.8027 15.3226 55.1733 15.4079 55.472C15.4932 55.7653 15.6212 55.9867 15.7919 56.136C15.9679 56.28 16.1839 56.352 16.4399 56.352ZM23.3913 53L21.6073 54.824L21.4233 54.952L20.1673 56.256L20.1593 55.28L22.3753 53H23.3913ZM20.4713 51.2V57H19.6153V51.2H20.4713ZM21.7113 54.344L23.4873 57H22.4953L21.0713 54.832L21.7113 54.344Z" fill="#737373"/>
<path d="M116.401 187.72V188.456H114.593V193H113.737V188.456H111.929V187.72H116.401ZM118.214 193.08C117.953 193.08 117.71 193.032 117.486 192.936C117.268 192.84 117.092 192.685 116.958 192.472C116.825 192.259 116.758 191.981 116.758 191.64V189H117.614V191.424C117.614 191.787 117.692 192.037 117.846 192.176C118.001 192.309 118.217 192.376 118.494 192.376C118.628 192.376 118.756 192.355 118.878 192.312C119.006 192.264 119.121 192.192 119.222 192.096C119.324 191.995 119.401 191.867 119.454 191.712C119.513 191.557 119.542 191.376 119.542 191.168V189H120.398V193H119.646L119.606 192.352C119.468 192.603 119.281 192.787 119.046 192.904C118.812 193.021 118.534 193.08 118.214 193.08ZM123.496 193.08C123.096 193.08 122.744 192.997 122.44 192.832C122.136 192.667 121.898 192.429 121.728 192.12C121.562 191.805 121.48 191.432 121.48 191C121.48 190.568 121.562 190.197 121.728 189.888C121.898 189.573 122.133 189.333 122.432 189.168C122.73 189.003 123.069 188.92 123.448 188.92C123.837 188.92 124.168 189 124.44 189.16C124.712 189.32 124.92 189.539 125.064 189.816C125.208 190.093 125.28 190.408 125.28 190.76C125.28 190.856 125.277 190.947 125.272 191.032C125.266 191.117 125.258 191.192 125.248 191.256H122.032V190.6H124.872L124.448 190.728C124.448 190.365 124.357 190.088 124.176 189.896C123.994 189.699 123.746 189.6 123.432 189.6C123.202 189.6 123.002 189.653 122.832 189.76C122.661 189.867 122.53 190.027 122.44 190.24C122.349 190.448 122.304 190.704 122.304 191.008C122.304 191.307 122.352 191.56 122.448 191.768C122.544 191.976 122.68 192.133 122.856 192.24C123.032 192.347 123.24 192.4 123.48 192.4C123.746 192.4 123.962 192.349 124.128 192.248C124.293 192.147 124.424 192.005 124.52 191.824L125.2 192.144C125.104 192.336 124.973 192.504 124.808 192.648C124.648 192.787 124.456 192.893 124.232 192.968C124.008 193.043 123.762 193.08 123.496 193.08Z" fill="#737373"/>
<path d="M191.244 193L189.692 187.72H190.596L191.78 192.256L192.932 187.72H193.812L194.972 192.264L196.148 187.72H197.02L195.476 193H194.468L193.628 189.832L193.364 188.616H193.356L193.092 189.832L192.26 193H191.244ZM199.345 193.08C198.945 193.08 198.593 192.997 198.289 192.832C197.985 192.667 197.748 192.429 197.577 192.12C197.412 191.805 197.329 191.432 197.329 191C197.329 190.568 197.412 190.197 197.577 189.888C197.748 189.573 197.983 189.333 198.281 189.168C198.58 189.003 198.919 188.92 199.297 188.92C199.687 188.92 200.017 189 200.289 189.16C200.561 189.32 200.769 189.539 200.913 189.816C201.057 190.093 201.129 190.408 201.129 190.76C201.129 190.856 201.127 190.947 201.121 191.032C201.116 191.117 201.108 191.192 201.097 191.256H197.881V190.6H200.721L200.297 190.728C200.297 190.365 200.207 190.088 200.025 189.896C199.844 189.699 199.596 189.6 199.281 189.6C199.052 189.6 198.852 189.653 198.681 189.76C198.511 189.867 198.38 190.027 198.289 190.24C198.199 190.448 198.153 190.704 198.153 191.008C198.153 191.307 198.201 191.56 198.297 191.768C198.393 191.976 198.529 192.133 198.705 192.24C198.881 192.347 199.089 192.4 199.329 192.4C199.596 192.4 199.812 192.349 199.977 192.248C200.143 192.147 200.273 192.005 200.369 191.824L201.049 192.144C200.953 192.336 200.823 192.504 200.657 192.648C200.497 192.787 200.305 192.893 200.081 192.968C199.857 193.043 199.612 193.08 199.345 193.08ZM203.746 193.08C203.416 193.08 203.114 192.997 202.842 192.832C202.576 192.667 202.365 192.429 202.21 192.12C202.056 191.811 201.978 191.44 201.978 191.008C201.978 190.56 202.061 190.181 202.226 189.872C202.392 189.563 202.613 189.328 202.89 189.168C203.168 189.003 203.472 188.92 203.802 188.92C204.144 188.92 204.432 189.013 204.666 189.2C204.901 189.387 205.058 189.629 205.138 189.928L205.042 190.016V187.2H205.898V193H205.138L205.074 191.912L205.186 191.92C205.149 192.16 205.061 192.368 204.922 192.544C204.784 192.715 204.61 192.848 204.402 192.944C204.2 193.035 203.981 193.08 203.746 193.08ZM203.93 192.392C204.16 192.392 204.357 192.333 204.522 192.216C204.688 192.099 204.816 191.933 204.906 191.72C204.997 191.507 205.042 191.251 205.042 190.952C205.042 190.675 204.997 190.437 204.906 190.24C204.816 190.037 204.688 189.883 204.522 189.776C204.362 189.669 204.176 189.616 203.962 189.616C203.605 189.616 203.328 189.739 203.13 189.984C202.933 190.229 202.834 190.568 202.834 191C202.834 191.432 202.93 191.773 203.122 192.024C203.314 192.269 203.584 192.392 203.93 192.392Z" fill="#737373"/>
<path d="M275.391 187.72V188.456H273.583V193H272.727V188.456H270.919V187.72H275.391ZM276.171 193V187.2H277.027V189.64C277.16 189.389 277.339 189.208 277.563 189.096C277.792 188.979 278.046 188.92 278.323 188.92C278.606 188.92 278.859 188.976 279.083 189.088C279.312 189.195 279.494 189.357 279.627 189.576C279.76 189.795 279.827 190.072 279.827 190.408V193H278.971V190.68C278.971 190.285 278.888 190.011 278.723 189.856C278.563 189.701 278.36 189.624 278.115 189.624C277.944 189.624 277.774 189.667 277.603 189.752C277.438 189.832 277.299 189.965 277.187 190.152C277.08 190.333 277.027 190.579 277.027 190.888V193H276.171ZM282.548 193.08C282.287 193.08 282.044 193.032 281.82 192.936C281.602 192.84 281.426 192.685 281.292 192.472C281.159 192.259 281.092 191.981 281.092 191.64V189H281.948V191.424C281.948 191.787 282.026 192.037 282.18 192.176C282.335 192.309 282.551 192.376 282.828 192.376C282.962 192.376 283.09 192.355 283.212 192.312C283.34 192.264 283.455 192.192 283.556 192.096C283.658 191.995 283.735 191.867 283.788 191.712C283.847 191.557 283.876 191.376 283.876 191.168V189H284.732V193H283.98L283.94 192.352C283.802 192.603 283.615 192.787 283.38 192.904C283.146 193.021 282.868 193.08 282.548 193.08Z" fill="#737373"/>
<path d="M353.058 188.456H350.098V189.992H352.418V190.728H350.098V193H349.242V187.72H353.058V188.456ZM353.739 193V189H354.467L354.547 189.72C354.654 189.459 354.811 189.261 355.019 189.128C355.233 188.989 355.494 188.92 355.803 188.92C355.883 188.92 355.963 188.928 356.043 188.944C356.123 188.955 356.19 188.973 356.243 189L356.123 189.752C356.065 189.731 355.998 189.715 355.923 189.704C355.854 189.688 355.758 189.68 355.635 189.68C355.47 189.68 355.307 189.725 355.147 189.816C354.987 189.901 354.854 190.032 354.747 190.208C354.646 190.384 354.595 190.608 354.595 190.88V193H353.739ZM357.484 188.328C357.297 188.328 357.153 188.283 357.052 188.192C356.956 188.096 356.908 187.963 356.908 187.792C356.908 187.621 356.956 187.491 357.052 187.4C357.153 187.309 357.297 187.264 357.484 187.264C357.665 187.264 357.804 187.309 357.9 187.4C358.001 187.491 358.052 187.621 358.052 187.792C358.052 187.963 358.001 188.096 357.9 188.192C357.804 188.283 357.665 188.328 357.484 188.328ZM357.908 189V193H357.052V189H357.908Z" fill="#737373"/>
<path d="M424.246 187.64C424.721 187.64 425.132 187.731 425.478 187.912C425.825 188.088 426.118 188.349 426.358 188.696L425.782 189.248C425.58 188.939 425.35 188.717 425.094 188.584C424.844 188.445 424.545 188.376 424.198 188.376C423.942 188.376 423.732 188.411 423.566 188.48C423.401 188.549 423.278 188.643 423.198 188.76C423.124 188.872 423.086 189 423.086 189.144C423.086 189.309 423.142 189.453 423.254 189.576C423.372 189.699 423.588 189.795 423.902 189.864L424.974 190.104C425.486 190.216 425.849 190.387 426.062 190.616C426.276 190.845 426.382 191.136 426.382 191.488C426.382 191.813 426.294 192.096 426.118 192.336C425.942 192.576 425.697 192.76 425.382 192.888C425.073 193.016 424.708 193.08 424.286 193.08C423.913 193.08 423.577 193.032 423.278 192.936C422.98 192.84 422.718 192.709 422.494 192.544C422.27 192.379 422.086 192.189 421.942 191.976L422.534 191.384C422.646 191.571 422.788 191.739 422.958 191.888C423.129 192.032 423.326 192.144 423.55 192.224C423.78 192.304 424.033 192.344 424.31 192.344C424.556 192.344 424.766 192.315 424.942 192.256C425.124 192.197 425.26 192.112 425.35 192C425.446 191.883 425.494 191.744 425.494 191.584C425.494 191.429 425.441 191.293 425.334 191.176C425.233 191.059 425.041 190.968 424.758 190.904L423.598 190.64C423.278 190.571 423.014 190.472 422.806 190.344C422.598 190.216 422.444 190.061 422.342 189.88C422.241 189.693 422.19 189.485 422.19 189.256C422.19 188.957 422.27 188.688 422.43 188.448C422.596 188.203 422.833 188.008 423.142 187.864C423.452 187.715 423.82 187.64 424.246 187.64ZM429.709 190.432C429.709 190.165 429.634 189.96 429.485 189.816C429.341 189.667 429.141 189.592 428.885 189.592C428.645 189.592 428.439 189.648 428.269 189.76C428.098 189.872 427.973 190.053 427.893 190.304L427.173 190C427.274 189.675 427.471 189.413 427.765 189.216C428.063 189.019 428.447 188.92 428.917 188.92C429.237 188.92 429.519 188.973 429.765 189.08C430.01 189.181 430.202 189.336 430.341 189.544C430.485 189.752 430.557 190.019 430.557 190.344V192.128C430.557 192.325 430.655 192.424 430.853 192.424C430.949 192.424 431.042 192.411 431.133 192.384L431.085 192.976C430.962 193.035 430.807 193.064 430.621 193.064C430.45 193.064 430.295 193.035 430.157 192.976C430.023 192.912 429.917 192.819 429.837 192.696C429.762 192.568 429.725 192.411 429.725 192.224V192.168L429.901 192.16C429.853 192.368 429.754 192.541 429.605 192.68C429.455 192.813 429.282 192.915 429.085 192.984C428.887 193.048 428.687 193.08 428.485 193.08C428.234 193.08 428.007 193.04 427.805 192.96C427.607 192.88 427.45 192.76 427.333 192.6C427.221 192.435 427.165 192.232 427.165 191.992C427.165 191.693 427.261 191.448 427.453 191.256C427.65 191.064 427.927 190.933 428.285 190.864L429.837 190.56L429.829 191.16L428.701 191.392C428.477 191.435 428.309 191.496 428.197 191.576C428.085 191.656 428.029 191.773 428.029 191.928C428.029 192.077 428.085 192.197 428.197 192.288C428.314 192.373 428.469 192.416 428.661 192.416C428.794 192.416 428.922 192.4 429.045 192.368C429.173 192.336 429.287 192.285 429.389 192.216C429.49 192.141 429.567 192.048 429.621 191.936C429.679 191.819 429.709 191.68 429.709 191.52V190.432ZM432.971 187.824V191.8C432.971 191.997 433.021 192.141 433.123 192.232C433.229 192.323 433.371 192.368 433.547 192.368C433.691 192.368 433.816 192.347 433.923 192.304C434.029 192.256 434.128 192.192 434.219 192.112L434.411 192.736C434.288 192.843 434.136 192.928 433.955 192.992C433.779 193.051 433.581 193.08 433.363 193.08C433.133 193.08 432.923 193.043 432.731 192.968C432.539 192.893 432.389 192.773 432.283 192.608C432.176 192.437 432.12 192.216 432.115 191.944V188.064L432.971 187.824ZM434.347 189V189.672H431.347V189H434.347Z" fill="#737373"/>
<line x1="25.903" y1="166.75" x2="438.819" y2="166.75" stroke="#737373" stroke-width="0.5"/>
<line x1="25.903" y1="129.75" x2="438.819" y2="129.75" stroke="#737373" stroke-width="0.5"/>
<line x1="25.903" y1="92.75" x2="438.819" y2="92.75" stroke="#737373" stroke-width="0.5"/>
<line x1="25.903" y1="55.75" x2="438.819" y2="55.75" stroke="#737373" stroke-width="0.5"/>
<path d="M35.0535 142.5L45.3307 148.116C51.8944 151.702 60.1042 148.475 62.4691 141.379L92.8698 50.1598C96.5161 39.2186 111.992 39.2186 115.639 50.1598L140.166 123.757C143.707 134.381 158.583 134.794 162.707 124.382L183.1 72.9015C187.344 62.1869 202.783 63.0337 205.829 74.1483L216.676 113.715C219.987 125.794 237.265 125.36 239.967 113.131L253.696 50.9867C256.444 38.5466 274.127 38.3969 277.085 50.7887L297.918 138.049C300.174 147.499 312.137 150.491 318.576 143.216L331.927 128.131C336.536 122.924 344.593 122.712 349.469 127.671L353.928 132.205C360.399 138.786 371.567 135.904 374.044 127.013L390.336 68.5387C393.531 57.0705 409.675 56.7527 413.32 68.0863L435.96 138.5" stroke="#FF9F0D" stroke-width="2" stroke-linecap="round" stroke-linejoin="round"/>
</svg>
